<svg xmlns="http://www.w3.org/2000/svg" xlink="http://www.w3.org/1999/xlink" width="0" height="0" style="display:none;">
  <symbol viewBox="0 0 20 17" id="iconfont-Cart">
    <path fill-rule="evenodd" clip-rule="evenodd" d="M0 1C0 0.447715 0.447715 0 1 0H3C3.0933 0 3.18361 0.012776 3.26928 0.0366739C3.64141 0.100126 3.96144 0.372638 4.06682 0.760735L6.57561 10H15.4386L17.0463 4H8C7.44772 4 7 3.55228 7 3C7 2.44772 7.44772 2 8 2H18.3C18.8523 2 19.3 2.44772 19.3 3C19.3 3.04178 19.2974 3.08297 19.2925 3.12341C19.3012 3.23394 19.2916 3.34783 19.2612 3.46104L17.1907 11.1884C17.0878 11.5722 16.7752 11.8437 16.4092 11.9127C16.2843 11.9688 16.1458 12 16 12H6C5.85027 12 5.70822 11.9671 5.5807 11.9081C5.22747 11.8314 4.92824 11.5653 4.82702 11.1925L2.33092 2H1C0.447715 2 0 1.55228 0 1ZM8.5 15.5C8.5 16.3284 7.82843 17 7 17C6.17157 17 5.5 16.3284 5.5 15.5C5.5 14.6716 6.17157 14 7 14C7.82843 14 8.5 14.6716 8.5 15.5ZM15.5 17C16.3284 17 17 16.3284 17 15.5C17 14.6716 16.3284 14 15.5 14C14.6716 14 14 14.6716 14 15.5C14 16.3284 14.6716 17 15.5 17Z" fill="#333333"/>
  </symbol>
  <symbol viewBox="0 0 16 16" id="iconfont-Close">
    <path fill-rule="evenodd" clip-rule="evenodd" d="M0.927526 0.926824C0.478423 1.37593 0.478423 2.10407 0.927526 2.55317L6.37225 7.99789L0.927525 13.4426C0.478423 13.8917 0.478423 14.6199 0.927525 15.069C1.37663 15.5181 2.10477 15.5181 2.55387 15.069L7.99859 9.62424L13.4433 15.069C13.8924 15.5181 14.6206 15.5181 15.0697 15.069C15.5188 14.6199 15.5188 13.8917 15.0697 13.4426L9.62494 7.99789L15.0697 2.55317C15.5188 2.10407 15.5188 1.37593 15.0697 0.926823C14.6206 0.477721 13.8924 0.477721 13.4433 0.926824L7.99859 6.37155L2.55387 0.926823C2.10477 0.477721 1.37663 0.477721 0.927526 0.926824Z" fill="#333333"/>
  </symbol>
  <symbol viewBox="0 0 48 48" id="iconfont-MailOpen">
    <g>
      <rect width="48" height="48" fill="white" fill-opacity="0.01" stroke-linejoin="round" stroke-width="4" stroke="none" fill-rule="evenodd"/>
      <g transform="translate(4.000000, 4.000000)">
        <path d="M40,14 L40,35.8181818 C40,37.0231667 39.1045695,38 38,38 L2,38 C0.8954305,38 0,37.0231667 0,35.8181818 L0,14 L20,27 L40,14 Z" fill="none" fill-rule="nonzero" stroke-linejoin="round" stroke-width="4" stroke="#333"/>
        <polyline stroke-linecap="round" points="-3.55271368e-15 13.7839098 20 -2.48689958e-14 40 13.7839098" stroke-linejoin="round" stroke-width="4" stroke="#333" fill="none" fill-rule="evenodd"/>
      </g>
    </g>
  </symbol>
  <symbol viewBox="0 0 49 50" id="iconfont-Phone">
    <rect width="48" height="48" transform="translate(1)" fill="white" fill-opacity="0.01"/>
    <path d="M16.9963 8.68583C17.7228 8.68583 18.3922 9.07985 18.7449 9.71509L21.1913 14.1219C21.5116 14.6989 21.5267 15.3968 21.2315 15.9871L18.8747 20.7008C18.8747 20.7008 19.5577 24.2122 22.4161 27.0706C25.2746 29.929 28.7742 30.6002 28.7742 30.6002L33.4871 28.2438C34.0778 27.9484 34.7762 27.9637 35.3534 28.2846L39.7727 30.7416C40.4074 31.0945 40.8009 31.7635 40.8009 32.4896L40.8009 37.5631C40.8009 40.1468 38.401 42.0129 35.953 41.1868C30.925 39.4903 23.1203 36.2601 18.1735 31.3132C13.2267 26.3664 9.99643 18.5617 8.29989 13.5338C7.47387 11.0857 9.33996 8.68583 11.9236 8.68583L16.9963 8.68583Z" fill="#333" stroke="#333" stroke-width="3" stroke-linejoin="bevel"/>
    <path d="M39.7351 9.28589L31.2498 17.7712" stroke="#333" stroke-width="3" stroke-linecap="square" stroke-linejoin="bevel"/>
    <path d="M31.2498 9.28596L39.735 17.7712" stroke="#333" stroke-width="3" stroke-linecap="square" stroke-linejoin="bevel"/>
  </symbol>
  <symbol viewBox="0 0 1024 1024" id="iconfont-Pinaple">
    <path d="M654.35 375.31s60.67-37.38 125.34-14.01c0 0-16.64-73.57-98.7-64.3 0 0-6-55-66.7-88.11 0 0 26.17 18.72 4.57 109.8 0 0-18.26-70.81-98.11-73.28 0 0 45.23 47.6 53.23 98.6 0.49 3.12 0.67 9.23 0.13 15.29-12.61-22.05-69.96-35.45-69.96-35.45 39.52 38.3 60.55 66.4 44.52 105.66-0.52 1.28 69.86 27.09 69.86 27.09s37.09-60.7 101.74-36.85c0.01-0.01-11.75-37.77-65.92-44.44z" fill="#ADDB53" p-id="1147"/>
    <path d="M587.62 477.36c-2.07 0-4.16-0.36-6.19-1.1-0.21-0.08-20.84-7.65-41.32-15.37-12.08-4.56-21.77-8.28-28.79-11.07-14.87-5.91-19.88-7.9-23.17-15.34a18.16 18.16 0 0 1-0.21-14.12c13.29-32.55 2.35-56.29-48.77-105.83a17.996 17.996 0 0 1-3.27-21.55 17.99 17.99 0 0 1 19.9-8.9c0.75 0.17 18.47 4.35 38.3 11.96 8.72 3.35 16.48 6.82 23.3 10.42-7.11-36.19-42.19-71.85-57.3-84.08a17.999 17.999 0 0 1-5.55-20.26c2.69-7.24 9.72-11.95 17.43-11.72 55.68 1.72 88.99 28.7 107.16 51.13 4.48-46.72-6.83-61.26-8.05-62.67-6.45-5.34-8.4-14.52-4.52-22.07 4.08-7.94 13.35-11.7 21.8-8.83 55.27 18.76 72.23 56.91 76.73 85.61 1.84 11.73 1.71 22.79 0.85 31.97 43.58 0.52 74.3 16.73 93.31 31.5 23.99 18.64 34.72 38.6 35.86 40.81 3.4 6.58 2.42 14.57-2.46 20.14a18.014 18.014 0 0 1-19.65 5.06c-33.1-11.96-65.71-8.64-90.4-2.11 33.29 19.19 42.58 47.63 43.1 49.28 2.04 6.55 0.18 13.68-4.79 18.41a18.014 18.014 0 0 1-18.63 3.84c-25.98-9.59-50.44-6.53-72.68 9.1-17.08 12-26.54 27.03-26.63 27.18-3.34 5.47-9.23 8.61-15.36 8.61z m-60.97-60.18c12.99 5.11 33.76 12.94 54.58 20.64 6.18-7.44 15.48-17.13 27.69-25.71 17.03-11.97 35.36-18.88 54.37-20.68-8.91-4.89-20.45-8.96-35.31-10.79a17.997 17.997 0 0 1-15.39-14.03 18.006 18.006 0 0 1 8.14-19.16c2.48-1.53 48.26-29.14 107.23-28.49-18.61-11.58-45.3-20.53-81.77-16.42a17.993 17.993 0 0 1-19.14-23.45c0.04-0.12 6-19.42 2.3-41.06-2.03-11.84-6.59-22.12-13.66-30.8 1.85 25.11-1.55 56.07-10.16 92.4a17.994 17.994 0 0 1-17.34 13.84h-0.18c-8.2 0-15.38-5.55-17.43-13.51-0.53-1.98-10.22-36.38-43.67-57.46 20.85 29.73 30.03 58.5 27.3 85.65-0.19 1.9-0.39 4.45-0.63 7.4-0.23 2.93-0.5 6.23-0.82 9.79-0.71 7.83-6.41 14.3-14.09 15.97a18.009 18.009 0 0 1-19.46-8.65c-1.05-1.84-2.78-3.74-5.05-5.64 1.78 2.99 3.43 5.99 4.91 9.01 9.86 20.14 12.38 40.28 7.58 61.15z m164.76 3.98zM572.08 179.63c0.01 0 0.01 0.01 0.02 0.01 0-0.01-0.01-0.01-0.02-0.01z m-0.01-0.02c0.01 0 0.01 0.01 0.02 0.01-0.01 0-0.02 0-0.02-0.01z m-0.02-0.01z" fill="#4BA341" p-id="1148"/>
    <path d="M447.07 421.42c3.9-2.54 7.93-4.88 12.16-6.82 5.02-2.31 10.25-4.14 15.58-5.57 5.35-1.44 10.81-2.47 16.3-3.19 3.68-0.48 7.39-0.87 11.09-1.05 43.61-2.65 89.35 9.9 125.83 33.83 32.43 21.27 57.16 53.07 65.37 91.4 13.36 62.31-31.67 199.02-108.95 279.06s-285.33-4.02-267.19-140.54c8.42-63.36 28.98-125.86 65.31-178.84 3.35-4.89 6.79-9.73 10.33-14.49 3.59-4.81 7.29-9.55 11.13-14.16 3.85-4.62 7.84-9.11 12-13.44 4.15-4.32 8.47-8.48 12.98-12.42 4.83-4.22 9.88-8.21 15.17-11.84 0.96-0.66 1.92-1.3 2.89-1.93z" fill="#1afa29" p-id="1149" data-spm-anchor-id="a313x.7781069.0.i0" class="selected"/>
    <path d="M485.64 864.68c-20.69 0-42.91-3.03-65.49-9.05-42.45-11.33-81.32-32.24-109.43-58.89-20.17-19.11-34.56-40.71-42.78-64.19-9.17-26.21-10.38-54.12-3.61-82.94 13.23-56.3 32.39-108.25 56.96-154.39 16.75-31.46 34.04-56.5 52.87-76.56 24.84-26.46 52.1-43.5 81.03-50.64 13.19-3.26 26.89-4.49 40.72-3.65 33.92 2.04 67.86 10.87 98.17 25.52 33.82 16.36 61.11 39.31 78.92 66.39 11.67 17.75 19.45 38.13 22.49 58.95 5 34.21 3.05 92.78-34.59 177.51-2.35 5.28-4.72 10.77-7.24 16.59-12.01 27.72-25.61 59.14-43.83 86.44-22.46 33.66-47.47 54.14-76.44 62.62-14.41 4.19-30.55 6.29-47.75 6.29z m1.89-464.57c-8.07 0-16.03 0.96-23.72 2.86-40.21 9.93-77.47 46.66-110.75 109.17-23.1 43.4-41.17 92.42-53.69 145.7-5.18 22.04-4.32 43.18 2.55 62.82 6.3 18.01 17.59 34.81 33.56 49.94 23.83 22.59 57.2 40.43 93.95 50.24 34.56 9.23 68.76 10.31 93.81 2.98 47.59-13.92 75.18-77.63 97.35-128.81 2.55-5.89 4.96-11.46 7.38-16.89 18.85-42.43 39.68-104.23 31.87-157.69-2.28-15.65-8.14-30.99-16.94-44.36-21.1-32.08-72.83-71.17-149.17-75.76-2.07-0.13-4.14-0.2-6.2-0.2z" fill="#1296db" p-id="1150" data-spm-anchor-id="a313x.7781069.0.i1" class=""/>
    <path d="M603.98 669.57c-3.75 0-7.53-1.17-10.76-3.58-82.06-61.32-115.05-184.85-116.42-190.08-2.51-9.62 3.25-19.45 12.87-21.96 9.61-2.51 19.45 3.25 21.96 12.87 0.38 1.45 31.37 116.71 103.14 170.34 7.96 5.95 9.6 17.23 3.64 25.19-3.53 4.72-8.95 7.22-14.43 7.22zM567.76 739.59c-2.59 0-5.22-0.56-7.72-1.75-45.55-21.68-85.34-61.92-115.06-116.39-22.14-40.58-31.03-74.73-31.4-76.17-2.47-9.63 3.34-19.44 12.97-21.91 9.62-2.47 19.43 3.33 21.9 12.95 0.12 0.47 8.44 32.02 28.57 68.68 18.13 33.02 49.94 77.23 98.48 100.33 8.98 4.27 12.79 15.01 8.52 23.99-3.08 6.48-9.53 10.27-16.26 10.27zM500.04 812.22c-2.59 0-5.23-0.56-7.72-1.75-45.55-21.68-85.34-61.92-115.06-116.39-22.14-40.58-31.03-74.73-31.4-76.17-2.47-9.63 3.34-19.44 12.97-21.91 9.62-2.47 19.43 3.33 21.9 12.95 0.12 0.47 8.44 32.02 28.57 68.68 18.13 33.02 49.94 77.23 98.48 100.33 8.98 4.27 12.79 15.01 8.52 23.99-3.08 6.48-9.54 10.27-16.26 10.27z" fill="#EFC100" p-id="1151"/>
    <path d="M369.05 688.89c-7.14 0-13.9-4.28-16.71-11.31-3.7-9.23 0.78-19.71 10.01-23.4 139.14-55.77 195.51-173.68 196.06-174.87 4.21-9.01 14.92-12.9 23.93-8.69 9.01 4.21 12.9 14.92 8.69 23.93-0.64 1.37-16.01 33.9-50.21 73.91-31.42 36.76-85.57 87.27-165.08 119.14-2.2 0.87-4.47 1.29-6.69 1.29zM407.73 784.65c-7.14 0-13.9-4.28-16.71-11.31-3.7-9.23 0.78-19.71 10.01-23.4 139.14-55.77 195.51-173.68 196.06-174.87 4.21-9.01 14.92-12.9 23.93-8.69 9.01 4.21 12.9 14.92 8.69 23.93-0.64 1.37-16.01 33.9-50.21 73.91-31.42 36.76-85.57 87.27-165.08 119.14-2.2 0.88-4.47 1.29-6.69 1.29z" fill="#EFC100" p-id="1152"/>
  </symbol>
  <symbol viewBox="0 0 18 18" id="iconfont-Service">
    <mask id="path-1-inside-1" fill="white">
      <path fill-rule="evenodd" clip-rule="evenodd" d="M9 18C13.9706 18 18 13.9706 18 9C18 4.02944 13.9706 0 9 0C4.02944 0 0 4.02944 0 9C0 10.5997 0.417344 12.1019 1.14909 13.4036L0.404226 16.3831C0.221131 17.1155 0.884525 17.7789 1.61691 17.5958L4.59636 16.8509C5.89814 17.5827 7.40033 18 9 18Z"/>
    </mask>
    <path d="M1.14909 13.4036L3.08937 13.8887L3.2823 13.117L2.89253 12.4236L1.14909 13.4036ZM0.404226 16.3831L-1.53606 15.898L-1.53606 15.898L0.404226 16.3831ZM1.61691 17.5958L1.13183 15.6555H1.13183L1.61691 17.5958ZM4.59636 16.8509L5.57637 15.1075L4.88297 14.7177L4.11129 14.9106L4.59636 16.8509ZM16 9C16 12.866 12.866 16 9 16V20C15.0751 20 20 15.0751 20 9H16ZM9 2C12.866 2 16 5.13401 16 9H20C20 2.92487 15.0751 -2 9 -2V2ZM2 9C2 5.13401 5.13401 2 9 2V-2C2.92487 -2 -2 2.92487 -2 9H2ZM2.89253 12.4236C2.32462 11.4133 2 10.2476 2 9H-2C-2 10.9518 -1.48993 12.7904 -0.594349 14.3837L2.89253 12.4236ZM2.34451 16.8682L3.08937 13.8887L-0.791195 12.9186L-1.53606 15.898L2.34451 16.8682ZM1.13183 15.6555C1.86422 15.4724 2.52761 16.1358 2.34451 16.8682L-1.53606 15.898C-2.08534 18.0952 -0.0951659 20.0853 2.10198 19.5361L1.13183 15.6555ZM4.11129 14.9106L1.13183 15.6555L2.10198 19.5361L5.08143 18.7912L4.11129 14.9106ZM9 16C7.75242 16 6.58669 15.6754 5.57637 15.1075L3.61635 18.5943C5.20959 19.4899 7.04824 20 9 20V16Z" fill="#333333" mask="url(#path-1-inside-1)"/>
    <path d="M5 11C5 11 6 13 9 13C12 13 13 11 13 11" stroke="#333333" stroke-width="1.5" stroke-linecap="round" stroke-linejoin="round"/>
    <rect x="6" y="5" width="2" height="4" rx="1" fill="#333333"/>
    <rect x="10" y="5" width="2" height="4" rx="1" fill="#333333"/>
  </symbol>
  <symbol viewBox="0 0 20 20" id="iconfont-Share">
    <path fill-rule="evenodd" clip-rule="evenodd" d="M10.4142 4.42843V13.0626C10.4142 13.6148 9.9665 14.0626 9.41421 14.0626C8.86193 14.0626 8.41421 13.6148 8.41421 13.0626V4.32843L7.20711 5.53553C6.81658 5.92606 6.18342 5.92606 5.79289 5.53553C5.40237 5.14501 5.40237 4.51184 5.79289 4.12132L8.62132 1.29289C8.82569 1.08853 9.0965 0.991109 9.36421 1.00064C9.63193 0.991109 9.90274 1.08853 10.1071 1.29289L12.9355 4.12132C13.3261 4.51184 13.3261 5.14501 12.9355 5.53553C12.545 5.92606 11.9118 5.92606 11.5213 5.53553L10.4142 4.42843Z" fill="#333333"/>
    <!-- <path d="M4.73333 7H3.5C3.22386 7 3 7.22386 3 7.5V17.5C3 17.7761 3.22386 18 3.5 18H15.5C15.7761 18 16 17.7761 16 17.5V7.5C16 7.22386 15.7761 7 15.5 7H14.2667" stroke="#333333" stroke-width="2" stroke-linecap="round"/> -->
  </symbol>
</svg>